<svg xmlns="http://www.w3.org/2000/svg" viewBox="0 0 100 100" width="100" height="100" role="img" aria-label="Design Principles and Patterns">
  <rect x="2" y="2" width="96" height="96" rx="22" fill="#0E0E0E" stroke="#2A2A2A" stroke-width="1.5"/>
  <path d="M45,26 C37,26 37,34 37,42 C37,48 33,50 29,50 C33,50 37,52 37,58 C37,66 37,74 45,74" fill="none" stroke="#FF7A00" stroke-width="8" stroke-linecap="round" stroke-linejoin="round"/>
  <path d="M55,26 C63,26 63,34 63,42 C63,48 67,50 71,50 C67,50 63,52 63,58 C63,66 63,74 55,74" fill="none" stroke="#FF7A00" stroke-width="8" stroke-linecap="round" stroke-linejoin="round"/>
  <circle cx="50" cy="50" r="6.5" fill="#FFA94D"/>
</svg>
